<svg width="29" height="57" viewBox="0 0 29 57" fill="none" xmlns="http://www.w3.org/2000/svg">
<path d="M21.1883 27.276L21.188 27.2752C20.1087 25.0531 18.0259 23.4859 15.2368 22.9161L15.2361 22.9159C14.2002 22.7035 13.1472 22.5988 12.1038 22.5988C6.04021 22.5988 1.93972 26.1589 1.82095 26.264L1.82005 26.2647C1.58813 26.4695 1.53211 26.8099 1.68659 27.0792C1.84521 27.3497 2.1641 27.4693 2.46167 27.3675L2.46181 27.3679C2.63309 27.309 3.13343 27.1541 3.76247 27.0072C4.49332 26.8365 5.49204 26.6537 6.45445 26.6537C7.52004 26.6537 8.13428 26.876 8.49051 27.1243L8.49127 27.1248L8.49559 27.1278C8.83929 27.3678 9.59027 27.8921 9.77967 29.0661C9.95049 30.1249 9.62987 31.5072 8.66616 33.4274L5.16618 40.4099L4.25982 39.9556L5.16618 40.4099C3.18555 44.3612 2.98477 47.9945 4.31416 50.7234L4.31473 50.7246C5.39389 52.9466 7.47278 54.5133 10.2677 55.0834C11.2997 55.2903 12.3535 55.401 13.3884 55.401C19.4558 55.401 23.5599 51.8406 23.6782 51.7359L23.6817 51.7328C23.9088 51.5336 23.9679 51.1924 23.8131 50.9215C23.6575 50.6587 23.3293 50.5348 23.0335 50.6325L22.6886 49.5884L23.0363 50.6316L23.0359 50.6318C22.9964 50.645 20.9197 51.3391 19.0517 51.3391C17.9872 51.3391 17.3653 51.1201 17.0004 50.8641C16.999 50.8632 16.9976 50.8622 16.9963 50.8613L16.9957 50.8609C16.6537 50.6228 15.9042 50.1009 15.7174 48.9286C15.5491 47.8723 15.8717 46.4913 16.8364 44.5692L21.1883 27.276ZM21.1883 27.276C22.5179 30.0082 22.3138 33.6417 20.3366 37.5897C20.3365 37.5899 20.3364 37.5901 20.3363 37.5903L16.8365 44.5689L21.1883 27.276Z" stroke="#265ED7" stroke-width="2.2"/>
<path d="M19.7518 18.0021C24.5846 18.0021 28.5023 14.0843 28.5023 9.25155C28.5023 4.41875 24.5846 0.500999 19.7518 0.500999C14.919 0.500999 11.0012 4.41875 11.0012 9.25155C11.0012 14.0843 14.919 18.0021 19.7518 18.0021Z" fill="#10295D"/>
</svg>
