<svg width="50" height="50" viewBox="0 0 50 50" fill="none" xmlns="http://www.w3.org/2000/svg">
<path fill-rule="evenodd" clip-rule="evenodd" d="M17.4805 7.42179C16.6782 7.42179 16.7345 6.65653 15.1696 5.72873C13.3927 4.67525 11.0496 4.56134 9.25575 5.64237C8.17581 6.29319 6.29483 8.17594 5.64241 9.25562C4.33421 11.4206 4.83144 14.4924 6.51658 16.2373C7.38933 17.1411 7.56898 16.9182 7.32428 17.9687C6.8537 18.1945 6.64048 18.1709 5.95741 18.1644C2.55143 18.1319 0 20.9413 0 23.5351V26.3031C0.0718502 27.361 0.320506 28.3545 1.07272 29.396C2.02119 30.7091 3.13941 31.3583 4.68382 31.7419C5.3247 31.901 5.89761 31.8005 6.64655 31.83C7.90124 31.8794 7.25377 33.4961 9.375 33.4961C10.8835 33.4961 12.264 31.4884 10.134 29.3191C8.14606 27.2947 6.48352 28.2354 5.21566 27.7921C3.66957 27.2515 3.9063 25.5866 3.9063 24.2187C3.9063 22.0494 5.71542 22.0654 6.93597 22.0726C8.38809 22.0812 9.63692 21.3775 10.4517 20.3149C11.7486 18.6232 11.7733 16.0149 10.4276 14.5724C9.58031 13.6644 8.88682 13.3879 8.88682 12.0117C8.88682 10.8991 11.1184 8.78901 12.1094 8.78901C14.1288 8.78901 13.8535 11.4258 17.7735 11.4258C18.72 11.4258 19.6807 10.9307 20.259 10.4933C22.6301 8.69977 21.8097 6.62287 22.1618 5.36478C22.6385 3.66143 24.3498 3.90621 25.7813 3.90621C27.9507 3.90621 27.9347 5.71534 27.9275 6.93589C27.9233 7.63596 27.9879 7.9039 28.1921 8.42911C29.5166 11.8362 33.6731 12.1376 35.4766 10.3788C37.094 8.80145 37.7925 7.95698 39.8195 9.98532C40.6322 10.7987 41.1134 11.0601 41.1134 12.3047C41.1134 13.6653 39.5547 14.0592 38.9054 15.6631C37.6582 18.7439 39.968 22.0775 42.9654 22.0737C46.0669 22.0699 46.0938 22.8395 46.0938 25.7812C46.0938 28.5871 43.0397 27.7323 41.9322 28.0649C40.3804 28.5308 38.7696 30.0026 38.7696 31.6406C38.7696 33.2844 41.0398 34.2517 42.259 32.7863C42.6895 32.2688 42.5406 31.862 43.3535 31.83C44.0342 31.8031 44.6857 31.8923 45.2389 31.7622C46.8092 31.3931 47.9789 30.7155 48.9277 29.3964C49.6856 28.3426 49.9309 27.3623 50 26.2941V23.5352C50 20.9643 47.4271 18.1331 44.1411 18.1637C43.4167 18.1704 43.1815 18.2113 42.6758 17.9687C42.3155 16.422 43.1841 17.1398 44.2705 15.1689C45.2997 13.3019 45.4525 11.2322 44.3793 9.33169C43.7128 8.1514 41.9352 6.41761 40.8028 5.68159C38.6929 4.31015 35.5687 4.77242 33.7627 6.51654C33.2271 7.03382 33.1282 7.42187 32.5196 7.42187C30.79 7.42187 33.44 3.73814 29.045 0.837836C28.1721 0.261743 27.236 0.0613029 26.2502 0H23.5352C21.9041 0 20.1507 1.17939 19.2375 2.44058C17.2507 5.18449 18.9715 7.42187 17.4806 7.42187L17.4805 7.42179Z" fill="#10295D"/>
<path fill-rule="evenodd" clip-rule="evenodd" d="M19.2383 24.9999C19.2383 23.3469 20.1216 21.7184 20.9688 20.8711C24.7044 17.1356 30.957 19.9616 30.957 24.9999C30.957 26.653 30.0737 28.2815 29.2265 29.1288C26.952 31.4033 23.2433 31.4033 20.9688 29.1288C20.1215 28.2815 19.2383 26.653 19.2383 24.9999ZM15.3321 24.414C15.3321 26.5249 15.4087 27.4889 16.3733 29.4275C16.6607 30.0052 16.9453 30.4359 17.3118 30.9304C17.5147 31.2043 17.6555 31.3829 17.8948 31.6168C18.1321 31.8489 18.3646 31.9779 18.4571 32.3241C17.1947 32.6182 15.0898 34.1071 14.0478 34.9461L12.6121 36.3425C11.698 37.4943 11.1283 37.8613 10.1897 39.5842C9.58831 40.6882 9.28563 41.2279 8.84941 42.5408C8.11674 44.7461 7.84501 46.7645 9.69064 48.6101C10.3124 49.2318 11.5036 50 12.6953 50H37.5C39.635 50 41.8946 47.7405 41.8946 45.6055C41.8946 44.8283 41.9536 43.9228 41.4341 43.3316C40.0976 41.8105 37.8906 42.7332 37.8906 44.5313C37.8906 44.6798 38.2678 46.0938 37.0117 46.0938H13.1836C11.1845 46.0938 13.0462 42.6607 13.3788 41.9921C14.1204 40.5009 15.5599 38.7078 16.9077 37.7085C17.2255 37.4729 17.4647 37.2814 17.8112 37.0495C18.1638 36.8134 18.423 36.6871 18.7911 36.467C20.4066 35.501 23.1554 34.8633 25.0977 34.8633C28.3736 34.8633 31.5634 36.1245 33.9606 38.305C35.878 40.0492 38.9222 37.4086 36.5014 35.2759C36.2177 35.026 36.1478 34.9193 35.8266 34.6812C34.9729 34.0482 32.6838 32.4029 31.7383 32.3242C31.8263 31.9944 32.0246 31.885 32.2511 31.6651C35.7035 28.3145 35.8475 21.9264 32.0557 18.1396C30.5106 16.5966 28.097 15.2343 25.6836 15.2343C23.8125 15.2343 22.5876 15.3093 20.8651 16.1775C17.8007 17.7221 15.332 21.0011 15.332 24.414H15.3321Z" fill="#265ED7"/>
</svg>
