<svg width="60" height="60" viewBox="0 0 60 60" fill="none" xmlns="http://www.w3.org/2000/svg">
<path d="M29.991 15.191C33.7548 15.191 36.806 12.1398 36.806 8.37601C36.806 4.61218 33.7548 1.561 29.991 1.561C26.2272 1.561 23.176 4.61218 23.176 8.37601C23.176 12.1398 26.2272 15.191 29.991 15.191Z" stroke="#265ED7" stroke-width="1.5" stroke-linecap="round" stroke-linejoin="round"/>
<path d="M15.13 32.594H44.87" stroke="#265ED7" stroke-width="1.5" stroke-linecap="round" stroke-linejoin="round"/>
<path d="M18.848 38.735L17.609 32.594H42.391L41.152 38.735" stroke="#265ED7" stroke-width="1.5" stroke-linecap="round" stroke-linejoin="round"/>
<path d="M35.952 32.539L37.191 23.439C39.7897 22.2553 42.0583 20.4522 43.7981 18.1878C45.5378 15.9234 46.6956 13.2669 47.17 10.451C47.2231 10.0966 47.1989 9.73482 47.099 9.39063C46.999 9.04645 46.8258 8.72797 46.5911 8.45709C46.3564 8.18621 46.0659 7.96935 45.7394 7.8214C45.413 7.67345 45.0584 7.59792 44.7 7.6V7.6C44.1105 7.60541 43.542 7.82017 43.0962 8.20593C42.6503 8.59169 42.3561 9.12336 42.266 9.706C41.769 12.6021 40.2641 15.2293 38.0175 17.1232C35.7708 19.0172 32.927 20.0559 29.9885 20.0559C27.0501 20.0559 24.2062 19.0172 21.9595 17.1232C19.7129 15.2293 18.208 12.6021 17.711 9.706C17.6212 9.12378 17.3274 8.5924 16.8822 8.20666C16.4369 7.82092 15.8691 7.60592 15.28 7.6V7.6C14.923 7.59811 14.5698 7.67335 14.2446 7.82056C13.9194 7.96778 13.6298 8.18351 13.3956 8.45299C13.1614 8.72247 12.9883 9.03934 12.8879 9.38194C12.7875 9.72453 12.7623 10.0848 12.814 10.438C13.2735 13.1676 14.3754 15.7488 16.0287 17.9688C17.682 20.1887 19.8394 21.9838 22.323 23.206L23.562 32.537" stroke="#265ED7" stroke-width="1.5" stroke-linecap="round" stroke-linejoin="round"/>
<path d="M2.264 58.439C1.76359 57.5725 1.50009 56.5895 1.5 55.5889C1.49991 54.5883 1.76323 53.6053 2.26348 52.7387C2.76374 51.8721 3.48331 51.1525 4.34985 50.6521C5.2164 50.1518 6.19938 49.8884 7.2 49.8884C8.20062 49.8884 9.1836 50.1518 10.0501 50.6521C10.9167 51.1525 11.6363 51.8721 12.1365 52.7387C12.6368 53.6053 12.9001 54.5883 12.9 55.5889C12.8999 56.5895 12.6364 57.5725 12.136 58.439" stroke="#265ED7" stroke-width="1.5" stroke-linecap="round" stroke-linejoin="round"/>
<path d="M13.664 58.439C13.1636 57.5725 12.9001 56.5895 12.9 55.5889C12.8999 54.5883 13.1632 53.6053 13.6635 52.7387C14.1637 51.8721 14.8833 51.1525 15.7499 50.6521C16.6164 50.1518 17.5994 49.8884 18.6 49.8884C19.6006 49.8884 20.5836 50.1518 21.4501 50.6521C22.3167 51.1525 23.0363 51.8721 23.5365 52.7387C24.0368 53.6053 24.3001 54.5883 24.3 55.5889C24.2999 56.5895 24.0364 57.5725 23.536 58.439" stroke="#265ED7" stroke-width="1.5" stroke-linecap="round" stroke-linejoin="round"/>
<path d="M25.064 58.439C24.5636 57.5725 24.3001 56.5895 24.3 55.5889C24.2999 54.5883 24.5632 53.6053 25.0635 52.7387C25.5637 51.8721 26.2833 51.1525 27.1499 50.6521C28.0164 50.1518 28.9994 49.8884 30 49.8884C31.0006 49.8884 31.9836 50.1518 32.8502 50.6521C33.7167 51.1525 34.4363 51.8721 34.9365 52.7387C35.4368 53.6053 35.7001 54.5883 35.7 55.5889C35.6999 56.5895 35.4364 57.5725 34.936 58.439" stroke="#265ED7" stroke-width="1.5" stroke-linecap="round" stroke-linejoin="round"/>
<path d="M36.464 58.439C35.9636 57.5725 35.7001 56.5895 35.7 55.5889C35.6999 54.5883 35.9632 53.6053 36.4635 52.7387C36.9637 51.8721 37.6833 51.1525 38.5499 50.6521C39.4164 50.1518 40.3994 49.8884 41.4 49.8884C42.4006 49.8884 43.3836 50.1518 44.2501 50.6521C45.1167 51.1525 45.8363 51.8721 46.3365 52.7387C46.8368 53.6053 47.1001 54.5883 47.1 55.5889C47.0999 56.5895 46.8364 57.5725 46.336 58.439" stroke="#265ED7" stroke-width="1.5" stroke-linecap="round" stroke-linejoin="round"/>
<path d="M47.864 58.439C47.3636 57.5725 47.1001 56.5895 47.1 55.5889C47.0999 54.5883 47.3632 53.6053 47.8635 52.7387C48.3637 51.8721 49.0833 51.1525 49.9499 50.6521C50.8164 50.1518 51.7994 49.8884 52.8 49.8884C53.8006 49.8884 54.7836 50.1518 55.6502 50.6521C56.5167 51.1525 57.2363 51.8721 57.7365 52.7387C58.2368 53.6053 58.5001 54.5883 58.5 55.5889C58.4999 56.5895 58.2364 57.5725 57.736 58.439" stroke="#265ED7" stroke-width="1.5" stroke-linecap="round" stroke-linejoin="round"/>
<path d="M3.978 43.692L5.217 44.931" stroke="#10295D" stroke-width="1.5" stroke-linecap="round" stroke-linejoin="round"/>
<path d="M8.935 38.735V43.692" stroke="#10295D" stroke-width="1.5" stroke-linecap="round" stroke-linejoin="round"/>
<path d="M11.413 46.17L12.652 44.931" stroke="#10295D" stroke-width="1.5" stroke-linecap="round" stroke-linejoin="round"/>
<path d="M21.326 42.452L22.565 46.17" stroke="#10295D" stroke-width="1.5" stroke-linecap="round" stroke-linejoin="round"/>
<path d="M30 41.213L27.522 44.931" stroke="#10295D" stroke-width="1.5" stroke-linecap="round" stroke-linejoin="round"/>
<path d="M38.674 44.931L36.196 41.213" stroke="#10295D" stroke-width="1.5" stroke-linecap="round" stroke-linejoin="round"/>
<path d="M43.63 42.452V44.931" stroke="#10295D" stroke-width="1.5" stroke-linecap="round" stroke-linejoin="round"/>
<path d="M51.065 42.452L46.109 47.409" stroke="#10295D" stroke-width="1.5" stroke-linecap="round" stroke-linejoin="round"/>
<path d="M54.783 39.974L56.022 43.692" stroke="#10295D" stroke-width="1.5" stroke-linecap="round" stroke-linejoin="round"/>
</svg>
