<svg width="54" height="59" viewBox="0 0 54 59" fill="none" xmlns="http://www.w3.org/2000/svg">
<path d="M21.936 14.4298L29.687 2.06385C30.0069 1.55386 30.5162 1.19182 31.103 1.05736C31.6898 0.922895 32.306 1.02703 32.816 1.34685L43.338 7.94685C43.8479 8.26655 44.2099 8.77564 44.3446 9.3622C44.4792 9.94877 44.3754 10.5648 44.056 11.0748L41.306 15.4598" stroke="#265ED7" stroke-width="1.5" stroke-linecap="round" stroke-linejoin="round"/>
<path d="M34.088 26.9718L32.068 30.1998C31.7483 30.7097 31.2392 31.0718 30.6526 31.2064C30.0661 31.3411 29.4501 31.2373 28.94 30.9178L22.88 27.1178" stroke="#265ED7" stroke-width="1.5" stroke-linecap="round" stroke-linejoin="round"/>
<path d="M22.74 40.0118H30.86" stroke="#265ED7" stroke-width="1.5" stroke-linecap="round" stroke-linejoin="round"/>
<path d="M11.453 43.3589C11.4265 43.4336 11.4087 43.5111 11.4 43.5899V57.9999H42.2V43.5899C42.1913 43.5111 42.1735 43.4336 42.147 43.3589H11.453Z" stroke="#265ED7" stroke-width="1.5" stroke-linecap="round" stroke-linejoin="round"/>
<path d="M14.394 37.2268L11.923 42.2878L11.501 43.1508C11.4778 43.2183 11.4618 43.288 11.453 43.3588H42.147C42.1382 43.288 42.1222 43.2183 42.099 43.1508L41.677 42.2878L39.206 37.2268C39.1237 37.0584 38.9956 36.9164 38.8365 36.8172C38.6774 36.718 38.4935 36.6656 38.306 36.6658H15.292C15.1048 36.6659 14.9214 36.7186 14.7627 36.8177C14.6039 36.9169 14.4762 37.0587 14.394 37.2268Z" stroke="#265ED7" stroke-width="1.5" stroke-linecap="round" stroke-linejoin="round"/>
<path d="M53.6 22.8998C53.5981 21.5182 53.0484 20.1937 52.0713 19.2168C51.0943 18.2399 49.7696 17.6904 48.388 17.6888H5.214C3.83201 17.6899 2.50687 18.2392 1.52937 19.2161C0.551875 20.193 0.00185356 21.5178 0 22.8998V53.5388C0.00185356 54.9208 0.551875 56.2457 1.52937 57.2226C2.50687 58.1995 3.83201 58.7488 5.214 58.7498H48.386C49.768 58.7488 51.0931 58.1995 52.0706 57.2226C53.0481 56.2457 53.5981 54.9208 53.6 53.5388V22.8998ZM14.355 20.4688C14.5684 20.4688 14.777 20.5321 14.9545 20.6507C15.1319 20.7693 15.2702 20.9378 15.3519 21.1349C15.4335 21.3321 15.4549 21.549 15.4133 21.7583C15.3716 21.9677 15.2689 22.1599 15.118 22.3108C14.9671 22.4617 14.7748 22.5645 14.5655 22.6061C14.3562 22.6477 14.1392 22.6264 13.9421 22.5447C13.7449 22.463 13.5764 22.3247 13.4578 22.1473C13.3393 21.9699 13.276 21.7612 13.276 21.5478C13.2759 21.4061 13.3037 21.2657 13.3579 21.1348C13.412 21.0038 13.4915 20.8848 13.5917 20.7846C13.692 20.6844 13.811 20.6049 13.9419 20.5507C14.0729 20.4965 14.2133 20.4687 14.355 20.4688V20.4688ZM10.228 20.4688C10.4414 20.4686 10.6502 20.5318 10.8277 20.6502C11.0053 20.7686 11.1438 20.9371 11.2256 21.1342C11.3074 21.3314 11.3289 21.5484 11.2874 21.7577C11.2459 21.9671 11.1432 22.1595 10.9923 22.3105C10.8415 22.4615 10.6492 22.5643 10.4399 22.606C10.2305 22.6478 10.0135 22.6264 9.81632 22.5448C9.6191 22.4632 9.45052 22.3249 9.33191 22.1474C9.21331 21.9699 9.15 21.7613 9.15 21.5478C9.15 21.2618 9.26354 20.9876 9.46568 20.7852C9.66781 20.5829 9.94201 20.4691 10.228 20.4688V20.4688ZM6.101 20.4688C6.31445 20.4686 6.52316 20.5318 6.70073 20.6502C6.8783 20.7686 7.01676 20.9371 7.09858 21.1342C7.1804 21.3314 7.20191 21.5484 7.16039 21.7577C7.11887 21.9671 7.01618 22.1595 6.86532 22.3105C6.71446 22.4615 6.5222 22.5643 6.31287 22.606C6.10354 22.6478 5.88654 22.6264 5.68932 22.5448C5.4921 22.4632 5.32352 22.3249 5.20491 22.1474C5.08631 21.9699 5.023 21.7613 5.023 21.5478C5.023 21.262 5.13641 20.9879 5.33832 20.7856C5.54024 20.5833 5.81418 20.4694 6.1 20.4688H6.101ZM52.101 53.5388C52.0997 54.5228 51.7081 55.4661 51.0123 56.1618C50.3164 56.8575 49.373 57.2488 48.389 57.2498H5.214C4.22967 57.2493 3.28576 56.8583 2.58945 56.1625C1.89314 55.4668 1.50132 54.5232 1.5 53.5388V25.0498H52.1L52.101 53.5388Z" fill="#10295D"/>
</svg>
