<svg width="52" height="52" viewBox="0 0 52 52" fill="none" xmlns="http://www.w3.org/2000/svg">
<path d="M23.8258 32.8822V31.1672C23.8258 29.4918 24.2015 28.6145 25.08 27.4L27.8846 23.55C29.3476 21.5422 29.8493 20.5797 29.8493 19.1563C29.8493 16.7717 28.1763 15.2655 25.7905 15.2655C23.4478 15.2655 21.9416 16.6877 21.44 19.2403C21.398 19.4912 21.2311 19.6172 20.9791 19.5752L18.3436 19.1143C18.0916 19.0723 17.9668 18.9055 18.0076 18.6535C18.6365 14.6367 21.524 12 25.8756 12C30.393 12 33.4473 14.9703 33.4473 19.1132C33.4473 21.1222 32.738 22.5863 31.3146 24.5533L28.5111 28.4033C27.6746 29.5327 27.4226 30.1183 27.4226 31.5405V32.8787C27.4226 33.1295 27.2558 33.2963 27.005 33.2963H24.2435C23.9926 33.301 23.8258 33.133 23.8258 32.8822ZM23.617 36.9002C23.617 36.6493 23.7838 36.4825 24.0358 36.4825H27.2161C27.467 36.4825 27.6338 36.6505 27.6338 36.9002V40.4982C27.6338 40.7502 27.4658 40.9158 27.2161 40.9158H24.0358C23.7826 40.9158 23.617 40.749 23.617 40.4982V36.9002Z" fill="#10295D"/>
<circle cx="26" cy="26" r="24.9" stroke="#265ED7" stroke-width="2.2"/>
</svg>
