<svg width="50" height="60" viewBox="0 0 50 60" fill="none" xmlns="http://www.w3.org/2000/svg">
<path d="M43.91 28.195L48.39 30.071L25 39.865L1.60999 30.071L6.08999 28.195" stroke="#265ED7" stroke-width="1.5" stroke-linecap="round" stroke-linejoin="round"/>
<path d="M29.967 32.151L20.033 27.991" stroke="#265ED7" stroke-width="1.5" stroke-linecap="round" stroke-linejoin="round"/>
<path d="M1.60999 30.071V47.365C1.60997 47.8195 1.74427 48.2639 1.99603 48.6424C2.24778 49.0208 2.60576 49.3164 3.02498 49.492L24.109 58.321C24.3911 58.4395 24.694 58.5006 25 58.5006C25.306 58.5006 25.6089 58.4395 25.891 58.321L46.975 49.492C47.3942 49.3164 47.7522 49.0208 48.0039 48.6424C48.2557 48.2639 48.39 47.8195 48.39 47.365V30.071" stroke="#265ED7" stroke-width="1.5" stroke-linecap="round" stroke-linejoin="round"/>
<path d="M25 39.865V58.5" stroke="#265ED7" stroke-width="1.5" stroke-linecap="round" stroke-linejoin="round"/>
<path d="M15.5258 1.71133L3.7246 4.33364C2.64633 4.57324 1.96645 5.64158 2.20605 6.71985L6.1561 24.4963C6.3957 25.5745 7.46405 26.2544 8.54232 26.0148L20.3435 23.3925C21.4217 23.1529 22.1016 22.0846 21.862 21.0063L17.912 3.22988C17.6724 2.15161 16.604 1.47173 15.5258 1.71133Z" stroke="#265ED7" stroke-width="1.5" stroke-linecap="round" stroke-linejoin="round"/>
<path d="M9.642 18.738C9.642 18.738 6.975 10.643 11.114 9.724C15.253 8.805 16.265 17.267 16.265 17.267" stroke="#265ED7" stroke-width="1.5" stroke-linecap="round" stroke-linejoin="round"/>
<path d="M8.94299 15.64C10.783 15.857 14.6 14.564 15.243 13.15" stroke="#265ED7" stroke-width="1.5" stroke-linecap="round" stroke-linejoin="round"/>
<path d="M39.653 13.969C39.1037 13.7795 38.5279 13.6783 37.947 13.669C37.405 13.632 36.863 13.599 36.321 13.569C36.0978 14.6714 35.7869 15.7542 35.391 16.807C36.0706 17.2332 36.8662 17.4367 37.667 17.389C38.1688 17.4142 38.6699 17.3288 39.135 17.1387C39.6 16.9486 40.0176 16.6585 40.358 16.289C40.5081 16.1029 40.6104 15.8829 40.656 15.6482C40.7016 15.4135 40.6891 15.1712 40.6196 14.9424C40.55 14.7136 40.4256 14.5053 40.2572 14.3357C40.0887 14.166 39.8813 14.0401 39.653 13.969V13.969Z" fill="#10295D"/>
<path d="M39.753 11.853C39.916 11.816 40.224 11.764 40.31 11.591C40.622 10.962 38.866 10.291 37.793 10.162C37.5177 10.1113 37.2375 10.0932 36.958 10.108C36.894 10.343 36.976 10.076 36.685 11.673C36.661 11.801 36.635 11.928 36.611 12.056C37.6623 12.0827 38.7139 12.0148 39.753 11.853V11.853Z" fill="#10295D"/>
<path d="M46.783 4.42101L35.18 1.02701C34.5435 0.841355 33.8593 0.916164 33.2779 1.23498C32.6966 1.55379 32.2657 2.09049 32.08 2.72701L26.966 20.2C26.7817 20.8365 26.8572 21.5201 27.1758 22.1011C27.4944 22.6821 28.0302 23.1132 28.666 23.3L40.266 26.693C40.9025 26.8787 41.5867 26.8039 42.1681 26.485C42.7494 26.1662 43.1803 25.6295 43.366 24.993L48.48 7.52201C48.6661 6.88575 48.5918 6.20165 48.2736 5.62013C47.9554 5.0386 47.4192 4.60728 46.783 4.42101V4.42101ZM40.219 18.29C39.2224 18.7999 38.0978 19.0054 36.9852 18.8809C35.8727 18.7564 34.8213 18.3075 33.962 17.59C33.8577 17.4825 33.7885 17.3459 33.7635 17.1983C33.7385 17.0506 33.7589 16.8988 33.822 16.763C34.4569 15.1933 34.8955 13.5512 35.128 11.874C35.266 11.129 35.37 10.369 35.546 9.63201C35.746 8.79701 36.423 8.61501 37.192 8.62301C38.6697 8.57301 40.1114 9.08468 41.227 10.055C41.4864 10.3128 41.6702 10.6367 41.7583 10.9916C41.8465 11.3465 41.8357 11.7188 41.727 12.068C41.5763 12.4566 41.2929 12.7793 40.927 12.979C41.3269 13.2425 41.6526 13.6042 41.8728 14.0294C42.0931 14.4547 42.2005 14.9293 42.185 15.408C42.1407 16.0191 41.9354 16.6076 41.5901 17.1138C41.2448 17.6199 40.7718 18.0257 40.219 18.29V18.29Z" fill="#10295D"/>
</svg>
