<svg width="77" height="50" viewBox="0 0 77 50" fill="none" xmlns="http://www.w3.org/2000/svg">
<path fill-rule="evenodd" clip-rule="evenodd" d="M21.5421 34.7277C19.884 34.3414 18.0038 32.9109 13.8873 33.356C11.0356 33.6643 9.28508 34.1358 6.91008 35.654C5.07684 36.8258 3.44842 38.463 2.27144 40.2904C1.69047 41.1924 0.289575 44.3364 0 46.8028V48.3616C0.157316 49.3333 0.681765 49.9868 1.79517 49.9868C2.33804 49.9868 2.59227 49.7509 2.89489 49.441C3.64008 48.6779 3.33033 47.8493 3.47676 46.7316C3.52102 46.3938 3.66473 45.7944 3.76693 45.3762C5.14038 39.7544 10.9682 35.632 17.3717 36.9534L19.4477 37.5702C17.8118 40.6618 16.6054 43.7614 16.6054 48.3412C16.6054 50.1869 19.1331 50.5764 19.8624 49.0551C20.1958 48.3597 19.9857 47.7358 20.0536 46.8527C20.1576 45.4993 20.5337 43.9653 20.8892 42.7515C22.1735 38.3663 25.7519 34.1823 29.7699 32.1845C30.9399 31.6028 31.7266 31.2079 33.1558 30.7833C37.8761 29.3807 42.5061 30.0374 46.8242 32.1845C48.9855 33.2591 50.6993 34.7461 52.2462 36.4864C53.5684 37.9738 55.1396 40.8212 55.7049 42.7516C56.5635 45.6833 56.559 48.6412 56.6848 48.9524C57.2726 50.4083 59.9887 50.5565 59.9887 48.042C59.9887 43.7059 58.6544 40.4201 57.1464 37.5702C57.5802 37.4691 57.6019 37.3963 58.0252 37.2522C64.5662 35.0249 71.9218 39.3022 73.0966 46.6028C73.1876 47.1683 73.1141 47.6217 73.1683 48.1767C73.428 50.835 76.5941 50.2629 76.5941 48.4908C76.5941 43.0353 74.0798 38.5149 69.7746 35.713C66.1242 33.3373 61.1324 32.5545 56.7876 34.0699C56.1632 34.2877 55.6333 34.5924 55.052 34.7279L53.7407 33.0472C52.4589 31.7654 50.2047 30.0567 48.5713 29.2409C41.6044 25.7608 35.0955 25.734 28.1233 29.1916C26.8251 29.8354 23.8884 31.9157 22.9307 32.9749C22.6275 33.3104 21.6341 34.3836 21.5421 34.7279V34.7277Z" fill="#265ED7"/>
<path fill-rule="evenodd" clip-rule="evenodd" d="M30.0692 12.1385C30.0692 10.5078 30.1055 9.70831 30.7708 8.20268C31.8844 5.68301 34.8527 3.46191 37.5491 3.46191C40.1659 3.46191 42.3837 3.85522 44.2468 5.88962C49.3163 11.4254 45.2976 19.9176 38.7458 19.9176H37.8483C33.8551 19.9176 30.0692 16.1446 30.0692 12.1385V12.1385ZM26.6284 10.9417C26.6284 14.876 27.5704 17.4963 30.0305 19.9564C37.5378 27.4637 49.9657 21.6265 49.9657 12.1385C49.9657 8.38103 48.856 5.70453 46.6375 3.4989C45.6691 2.53606 44.7185 1.78975 43.4375 1.16384C40.2648 -0.386349 36.4553 -0.373335 33.258 1.11552C29.6356 2.80226 26.6285 6.96951 26.6285 10.9417L26.6284 10.9417Z" fill="#10295D"/>
<path fill-rule="evenodd" clip-rule="evenodd" d="M61.4847 26.6495C59.0605 26.6495 56.6976 24.3058 56.6976 22.1616C56.6976 20.5048 56.8884 19.4447 58.0031 18.2311C60.6812 15.3153 66.5711 16.8715 66.5711 21.7128C66.5711 24.4519 64.2636 26.6495 61.4848 26.6495L61.4847 26.6495ZM53.2569 21.4136C53.2569 26.822 57.7922 30.2833 61.7716 30.0878C66.3614 29.8622 70.0118 26.0918 70.0118 21.7128C70.0118 17.3035 66.3024 13.3353 61.9335 13.3353C59.2119 13.3353 57.3481 14.1007 55.6852 15.7637C54.4827 16.9661 53.2569 19.0746 53.2569 21.4136Z" fill="#10295D"/>
<path fill-rule="evenodd" clip-rule="evenodd" d="M15.1094 26.6495C12.8481 26.6495 10.3223 24.5742 10.3223 22.012V21.1144C10.3223 19.0831 12.6294 16.776 14.6607 16.776H15.5583C17.9962 16.776 20.1958 19.1375 20.1958 21.5632C20.1958 24.4285 17.9749 26.6494 15.1095 26.6494L15.1094 26.6495ZM6.88156 21.264C6.88156 24.4625 7.78727 26.2216 9.98552 28.183C12.9535 30.8313 18.1779 30.5462 21.1351 27.5889C25.9838 22.7402 23.3981 13.3353 14.8102 13.3353C10.7337 13.3353 6.88156 17.1874 6.88156 21.264V21.264Z" fill="#10295D"/>
</svg>
