<svg width="60" height="52" viewBox="0 0 60 52" fill="none" xmlns="http://www.w3.org/2000/svg">
<path d="M29.58 33.566H6.547C5.89577 33.566 5.25092 33.4377 4.64927 33.1885C4.04762 32.9393 3.50094 32.574 3.04045 32.1135C2.57997 31.6531 2.21469 31.1064 1.96548 30.5047C1.71627 29.9031 1.588 29.2582 1.588 28.607V6.292C1.588 4.97679 2.11046 3.71545 3.04045 2.78546C3.97045 1.85547 5.23179 1.333 6.547 1.333H43.739C44.3904 1.33274 45.0355 1.46081 45.6373 1.70991C46.2392 1.959 46.7861 2.32424 47.2468 2.78475C47.7075 3.24526 48.073 3.79203 48.3223 4.39381C48.5717 4.9956 48.7 5.64061 48.7 6.292V28.607C48.7004 29.4929 48.4634 30.3627 48.0137 31.1259C47.564 31.8892 46.9181 32.518 46.143 32.947" stroke="#265ED7" stroke-width="1.5" stroke-linecap="round" stroke-linejoin="round"/>
<path d="M42.499 28.607H48.698" stroke="#265ED7" stroke-width="1.5" stroke-linecap="round" stroke-linejoin="round"/>
<path d="M1.588 28.607H26.693" stroke="#265ED7" stroke-width="1.5" stroke-linecap="round" stroke-linejoin="round"/>
<path d="M34.441 40.385H32.465C31.6188 40.3849 30.798 40.0962 30.138 39.5665C29.478 39.0369 29.0184 38.2981 28.835 37.472L28.242 33.566H22.042L21.449 37.472C21.2656 38.2983 20.8058 39.0372 20.1456 39.5669C19.4854 40.0965 18.6644 40.3851 17.818 40.385H34.441Z" stroke="#265ED7" stroke-width="1.5" stroke-linecap="round" stroke-linejoin="round"/>
<path d="M10.886 17.807C13.6248 17.807 15.845 15.5868 15.845 12.848C15.845 10.1092 13.6248 7.889 10.886 7.889C8.14722 7.889 5.927 10.1092 5.927 12.848C5.927 15.5868 8.14722 17.807 10.886 17.807Z" stroke="#265ED7" stroke-width="1.5" stroke-linecap="round" stroke-linejoin="round"/>
<path d="M10.886 14.088C11.742 14.088 12.436 13.394 12.436 12.538C12.436 11.682 11.742 10.988 10.886 10.988C10.03 10.988 9.336 11.682 9.336 12.538C9.336 13.394 10.03 14.088 10.886 14.088Z" stroke="#265ED7" stroke-width="1.5" stroke-linecap="round" stroke-linejoin="round"/>
<path d="M7.519 16.489C7.87602 15.9242 8.37465 15.4626 8.96532 15.1501C9.556 14.8377 10.2182 14.6853 10.886 14.708C11.5538 14.6852 12.216 14.8375 12.8067 15.15C13.3974 15.4624 13.896 15.9241 14.253 16.489" stroke="#265ED7" stroke-width="1.5" stroke-linecap="round" stroke-linejoin="round"/>
<path d="M37.516 27.812L40.416 24.792C40.4755 24.7314 40.5186 24.6566 40.5412 24.5747C40.5638 24.4928 40.5651 24.4065 40.5451 24.324C40.5251 24.2414 40.4844 24.1653 40.4268 24.1029C40.3692 24.0404 40.2967 23.9936 40.216 23.967L27.782 19.821C27.6915 19.7894 27.5939 19.7844 27.5007 19.8066C27.4075 19.8289 27.3226 19.8775 27.2563 19.9466C27.1899 20.0157 27.1448 20.1025 27.1263 20.1965C27.1078 20.2905 27.1167 20.3879 27.152 20.477L31.816 32.718C31.8455 32.7979 31.8948 32.8689 31.9594 32.9244C32.024 32.9799 32.1017 33.0179 32.1852 33.035C32.2686 33.052 32.355 33.0474 32.4362 33.0217C32.5173 32.996 32.5906 32.95 32.649 32.888L35.549 29.866L41.86 35.918C41.9075 35.964 41.9636 36.0002 42.0252 36.0244C42.0868 36.0486 42.1525 36.0603 42.2186 36.059C42.2848 36.0576 42.35 36.0431 42.4104 36.0163C42.4709 35.9895 42.5255 35.951 42.571 35.903L43.845 34.575C43.8911 34.5275 43.9272 34.4714 43.9514 34.4098C43.9756 34.3482 43.9873 34.2825 43.986 34.2164C43.9846 34.1502 43.9701 34.085 43.9433 34.0246C43.9165 33.9641 43.878 33.9095 43.83 33.864L37.516 27.812Z" fill="#10295D"/>
<path d="M28.925 47.858C29.224 47.961 29.5169 48.0812 29.802 48.218C30.102 48.361 30.402 48.518 30.693 48.676C31.27 48.995 31.83 49.345 32.375 49.714C32.791 49.9947 33.1987 50.2873 33.598 50.592C33.63 50.62 33.6634 50.6464 33.698 50.671C33.641 50.638 33.569 50.571 33.667 50.647L33.808 50.758C33.852 50.793 33.896 50.828 33.938 50.858C34.0577 50.9711 34.2102 51.0433 34.3735 51.0643C34.5368 51.0853 34.7026 51.0541 34.847 50.975C34.9887 50.8904 35.0989 50.762 35.1612 50.6092C35.2234 50.4564 35.2342 50.2875 35.192 50.128C34.976 49.435 34.745 48.746 34.542 48.048C34.374 47.469 34.215 46.886 34.079 46.298C34.017 46.029 33.959 45.759 33.912 45.487C33.903 45.434 33.895 45.381 33.886 45.329L33.871 45.229C33.886 45.337 33.889 45.363 33.882 45.305C33.873 45.194 33.858 45.083 33.852 44.971C33.8479 44.7734 33.7676 44.585 33.6278 44.4452C33.488 44.3054 33.2996 44.2251 33.102 44.221C32.9037 44.2231 32.7142 44.3028 32.574 44.443C32.4338 44.5832 32.3541 44.7727 32.352 44.971C32.4646 46.1337 32.7082 47.28 33.078 48.388C33.286 49.107 33.523 49.815 33.746 50.529L35 49.8C33.317 48.3508 31.396 47.2036 29.322 46.409C29.1324 46.3629 28.9323 46.3924 28.7641 46.4913C28.5959 46.5901 28.4727 46.7506 28.4207 46.9387C28.3687 47.1267 28.392 47.3276 28.4856 47.4989C28.5791 47.6701 28.7356 47.7982 28.922 47.856L28.925 47.858Z" fill="#10295D"/>
<path d="M43.674 39.545C44.4651 41.3122 45.4779 42.9715 46.688 44.483C46.8287 44.6232 47.0193 44.7019 47.218 44.7019C47.4167 44.7019 47.6072 44.6232 47.748 44.483C47.8836 44.3397 47.9591 44.1498 47.9591 43.9525C47.9591 43.7552 47.8836 43.5654 47.748 43.422C46.6341 41.9975 45.7007 40.4407 44.969 38.787C44.8681 38.6159 44.7036 38.4916 44.5114 38.4412C44.3192 38.3908 44.1149 38.4184 43.943 38.518C43.7757 38.6226 43.6547 38.7872 43.6047 38.9781C43.5547 39.169 43.5795 39.3718 43.674 39.545Z" fill="#10295D"/>
<path d="M42.258 40.92C43.9043 40.3319 45.441 39.4735 46.805 38.38C46.9316 38.2508 47.0074 38.0803 47.0184 37.8997C47.0293 37.7192 46.9747 37.5407 46.8646 37.3972C46.7546 37.2537 46.5964 37.1547 46.4191 37.1185C46.2419 37.0822 46.0576 37.1112 45.9 37.2L45.722 37.327C45.6366 37.3767 45.5619 37.4427 45.5021 37.5213C45.4422 37.5999 45.3985 37.6895 45.3732 37.785C45.348 37.8805 45.3419 37.9801 45.3551 38.0779C45.3684 38.1758 45.4008 38.2701 45.4505 38.3555C45.5002 38.4409 45.5662 38.5156 45.6448 38.5754C45.7234 38.6353 45.813 38.679 45.9085 38.7043C46.004 38.7295 46.1036 38.7356 46.2014 38.7224C46.2993 38.7091 46.3936 38.6767 46.479 38.627L46.657 38.5L45.748 37.323L45.632 37.414C45.687 37.372 45.679 37.378 45.608 37.431C45.537 37.484 45.45 37.55 45.37 37.608C45.2093 37.7253 45.046 37.8387 44.88 37.948C44.5567 38.1627 44.226 38.3647 43.888 38.554C43.55 38.7433 43.2047 38.9187 42.852 39.08L42.579 39.201C42.497 39.237 42.488 39.24 42.553 39.213L42.415 39.269C42.2323 39.3423 42.048 39.4113 41.862 39.476C41.7643 39.4998 41.6723 39.5429 41.5915 39.6029C41.5108 39.6629 41.4429 39.7385 41.3919 39.8252C41.341 39.912 41.308 40.0081 41.2948 40.1078C41.2817 40.2075 41.2888 40.3089 41.3156 40.4058C41.3424 40.5028 41.3884 40.5934 41.4509 40.6722C41.5133 40.751 41.591 40.8165 41.6793 40.8648C41.7676 40.913 41.8646 40.943 41.9647 40.953C42.0648 40.963 42.1659 40.9528 42.262 40.923L42.258 40.92Z" fill="#10295D"/>
<path d="M48.5 36.724C48.7 37.682 48.9333 38.6323 49.2 39.575C49.334 40.046 49.472 40.517 49.625 40.981C49.7352 41.4515 50.016 41.8645 50.413 42.14C51.206 42.602 52.388 42.092 53.106 41.678C53.8572 41.2407 54.49 40.6261 54.949 39.888C55.0494 39.7163 55.0774 39.5117 55.027 39.3193C54.9765 39.1269 54.8517 38.9624 54.68 38.862C54.5083 38.7616 54.3037 38.7336 54.1113 38.784C53.9189 38.8345 53.7544 38.9593 53.654 39.131C53.336 39.6386 52.8995 40.0613 52.382 40.363C52.1304 40.5229 51.8559 40.6437 51.568 40.721C51.4187 40.7738 51.2641 40.8103 51.107 40.83C51.162 40.815 51.142 40.812 51.049 40.819L51.199 40.861C51.125 40.817 51.123 40.817 51.192 40.861C51.23 40.919 51.235 40.926 51.205 40.881C51.197 40.861 51.105 40.689 51.131 40.755C51.157 40.821 51.08 40.61 51.071 40.582C51.01 40.396 50.953 40.208 50.896 40.021C50.7713 39.615 50.6533 39.2073 50.542 38.798C50.318 37.98 50.118 37.1553 49.942 36.324C49.9157 36.2291 49.871 36.1402 49.8104 36.0625C49.7498 35.9849 49.6745 35.9199 49.5888 35.8713C49.5031 35.8228 49.4087 35.7916 49.3109 35.7795C49.2131 35.7674 49.1139 35.7747 49.019 35.801C48.924 35.8273 48.8352 35.872 48.7575 35.9326C48.6799 35.9932 48.6149 36.0685 48.5663 36.1542C48.5178 36.2399 48.4866 36.3343 48.4745 36.4321C48.4624 36.5299 48.4697 36.6291 48.496 36.724H48.5Z" fill="#10295D"/>
<path d="M49.749 37.055C49.879 36.935 50.014 36.821 50.149 36.709C50.195 36.672 50.217 36.655 50.157 36.701C50.202 36.666 50.248 36.632 50.294 36.601C50.368 36.547 50.443 36.493 50.518 36.442C50.8356 36.2244 51.1662 36.0263 51.508 35.849C51.675 35.763 51.844 35.683 52.015 35.606C52.066 35.583 52.102 35.569 52.029 35.599L52.159 35.546C52.245 35.512 52.331 35.48 52.418 35.446C52.7789 35.3181 53.1489 35.2178 53.525 35.146C53.7162 35.092 53.8785 34.9649 53.9766 34.7921C54.0746 34.6193 54.1007 34.4148 54.049 34.223C53.9917 34.034 53.864 33.8742 53.6921 33.7769C53.5203 33.6795 53.3176 33.652 53.126 33.7C51.4651 34.0507 49.9306 34.8456 48.686 36C48.5467 36.1414 48.4686 36.332 48.4686 36.5305C48.4686 36.729 48.5467 36.9196 48.686 37.061C48.8289 37.1975 49.0189 37.2737 49.2165 37.2737C49.4141 37.2737 49.6041 37.1975 49.747 37.061L49.749 37.055Z" fill="#10295D"/>
<path d="M50.252 39.858C51.2578 39.3849 52.219 38.8223 53.124 38.177C53.2892 38.0741 53.4117 37.915 53.469 37.729C53.5207 37.5338 53.4934 37.3262 53.393 37.151C53.291 36.9811 53.1265 36.8578 52.9348 36.8075C52.7431 36.7573 52.5393 36.784 52.367 36.882C51.4622 37.5273 50.501 38.0896 49.495 38.562C49.3238 38.6631 49.1995 38.8278 49.1491 39.0201C49.0987 39.2125 49.1264 39.4169 49.226 39.589C49.3303 39.7564 49.4947 39.8776 49.6855 39.9276C49.8763 39.9776 50.079 39.9527 50.252 39.858Z" fill="#10295D"/>
<path d="M39.9586 47.7468C40.9769 47.4611 41.4308 45.9052 40.9725 44.2717C40.5141 42.6382 39.317 41.5456 38.2987 41.8313C37.2804 42.117 36.8265 43.6729 37.2849 45.3064C37.7432 46.9399 38.9403 48.0326 39.9586 47.7468Z" stroke="#10295D" stroke-width="1.5" stroke-linecap="round" stroke-linejoin="round"/>
<path d="M56.207 30.928L57.309 35.471" stroke="#10295D" stroke-width="1.5" stroke-linecap="round" stroke-linejoin="round"/>
<path d="M58.083 38.659L58.412 40.014" stroke="#10295D" stroke-width="1.5" stroke-linecap="round" stroke-linejoin="round"/>
<path d="M25.143 17.807C27.8818 17.807 30.102 15.5868 30.102 12.848C30.102 10.1092 27.8818 7.889 25.143 7.889C22.4042 7.889 20.184 10.1092 20.184 12.848C20.184 15.5868 22.4042 17.807 25.143 17.807Z" stroke="#265ED7" stroke-width="1.5" stroke-linecap="round" stroke-linejoin="round"/>
<path d="M25.143 14.088C25.999 14.088 26.693 13.394 26.693 12.538C26.693 11.682 25.999 10.988 25.143 10.988C24.287 10.988 23.593 11.682 23.593 12.538C23.593 13.394 24.287 14.088 25.143 14.088Z" stroke="#265ED7" stroke-width="1.5" stroke-linecap="round" stroke-linejoin="round"/>
<path d="M21.776 16.489C22.133 15.9242 22.6317 15.4626 23.2223 15.1501C23.813 14.8377 24.4752 14.6853 25.143 14.708C25.8109 14.6852 26.4731 14.8375 27.0637 15.15C27.6544 15.4624 28.1531 15.9241 28.51 16.489" stroke="#265ED7" stroke-width="1.5" stroke-linecap="round" stroke-linejoin="round"/>
<path d="M39.4 17.807C42.1388 17.807 44.359 15.5868 44.359 12.848C44.359 10.1092 42.1388 7.889 39.4 7.889C36.6612 7.889 34.441 10.1092 34.441 12.848C34.441 15.5868 36.6612 17.807 39.4 17.807Z" stroke="#265ED7" stroke-width="1.5" stroke-linecap="round" stroke-linejoin="round"/>
<path d="M39.4 14.088C40.256 14.088 40.95 13.394 40.95 12.538C40.95 11.682 40.256 10.988 39.4 10.988C38.544 10.988 37.85 11.682 37.85 12.538C37.85 13.394 38.544 14.088 39.4 14.088Z" stroke="#265ED7" stroke-width="1.5" stroke-linecap="round" stroke-linejoin="round"/>
<path d="M36.033 16.489C36.4066 15.9402 36.9086 15.491 37.4955 15.1806C38.0823 14.8701 38.7361 14.7079 39.4 14.7079C40.0639 14.7079 40.7177 14.8701 41.3045 15.1806C41.8914 15.491 42.3934 15.9402 42.767 16.489" stroke="#265ED7" stroke-width="1.5" stroke-linecap="round" stroke-linejoin="round"/>
</svg>
